<?xml version="1.0" encoding="UTF-8" standalone="no"?>
<!-- Created with Inkscape (http://www.inkscape.org/) -->

<svg
   width="1920"
   height="1080"
   viewBox="0 0 508 285.75"
   version="1.1"
   id="svg5"
   inkscape:version="1.1.2 (0a00cf5339, 2022-02-04)"
   sodipodi:docname="fantasma.svg"
   xmlns:inkscape="http://www.inkscape.org/namespaces/inkscape"
   xmlns:sodipodi="http://sodipodi.sourceforge.net/DTD/sodipodi-0.dtd"
   xmlns="http://www.w3.org/2000/svg"
   xmlns:svg="http://www.w3.org/2000/svg">
  <sodipodi:namedview
     id="namedview7"
     pagecolor="#ffffff"
     bordercolor="#666666"
     borderopacity="1.0"
     inkscape:pageshadow="2"
     inkscape:pageopacity="0.0"
     inkscape:pagecheckerboard="false"
     inkscape:document-units="mm"
     showgrid="false"
     units="px"
     borderlayer="true"
     inkscape:zoom="0.33659271"
     inkscape:cx="1128.9609"
     inkscape:cy="496.14859"
     inkscape:window-width="1920"
     inkscape:window-height="1011"
     inkscape:window-x="0"
     inkscape:window-y="32"
     inkscape:window-maximized="1"
     inkscape:current-layer="layer1" />
  <defs
     id="defs2" />
  <g
     inkscape:label="Capa 1"
     inkscape:groupmode="layer"
     id="layer1">
    <g
       id="g5306"
       transform="translate(-312.32778,-8.903573)">
      <path
         style="opacity:0.755806;fill:#baf49f;fill-opacity:0.756863;stroke:#000000;stroke-width:2.64583;stroke-linecap:round;stroke-linejoin:round;stroke-miterlimit:4;stroke-dasharray:none"
         d="m 361.91129,116.91564 c -25.90633,44.09138 -24.90486,57.3365 -20.81715,57.02929 4.08773,-0.30722 7.82977,-5.15927 7.82977,-5.15927 7.1022,-18.29597 12.98819,-36.15075 12.98738,-51.87002 z"
         id="path3694"
         sodipodi:nodetypes="cscc" />
      <path
         style="opacity:0.755806;fill:#baf59f;fill-opacity:1;stroke:#000000;stroke-width:2.64583;stroke-linecap:round;stroke-linejoin:round;stroke-miterlimit:4;stroke-dasharray:none"
         d="m 320.86695,227.83629 c -0.57557,2.93256 17.42052,-26.42286 33.30201,-76.36267 10.19045,-32.04416 15.51027,-90.043444 27.68611,-95.778087 28.9248,-13.623159 46.05372,2.08947 48.90016,16.149278 1.09218,5.394743 -2.61171,39.175869 3.23268,68.342489 9.38728,46.84755 28.81335,95.51748 22.68323,98.64651 -9.94662,5.07711 -29.86775,-5.01386 -46.04946,-8.84809 -16.1817,-3.83423 -39.21842,11.93172 -56.27354,7.49138 -17.05512,-4.44034 -33.48119,-9.64081 -33.48119,-9.64081 z"
         id="path2422"
         sodipodi:nodetypes="csssssssc" />
      <circle
         style="opacity:0.755806;fill:#ffffff;fill-opacity:1;stroke:#000000;stroke-width:2.64583;stroke-linecap:round;stroke-linejoin:round;stroke-miterlimit:4;stroke-dasharray:none"
         id="path3192"
         cx="377.93417"
         cy="88.871536"
         r="11.045323" />
      <circle
         style="opacity:0.755806;fill:#000000;fill-opacity:1;stroke:#000000;stroke-width:2.64583;stroke-linecap:round;stroke-linejoin:round;stroke-miterlimit:4;stroke-dasharray:none"
         id="circle3274"
         cx="374.89307"
         cy="90.290123"
         r="3.09688" />
      <circle
         style="opacity:0.755806;fill:#ffffff;fill-opacity:1;stroke:#000000;stroke-width:2.64583;stroke-linecap:round;stroke-linejoin:round;stroke-miterlimit:4;stroke-dasharray:none"
         id="circle3330"
         cx="407.80371"
         cy="89.507149"
         r="12.234359" />
      <circle
         style="opacity:0.755806;fill:#000000;fill-opacity:1;stroke:#000000;stroke-width:2.64583;stroke-linecap:round;stroke-linejoin:round;stroke-miterlimit:4;stroke-dasharray:none"
         id="circle3332"
         cx="402.88812"
         cy="90.290123"
         r="3.09688" />
      <path
         style="opacity:0.755806;fill:#baf49f;fill-opacity:0.756863;stroke:#000000;stroke-width:2.64583;stroke-linecap:round;stroke-linejoin:round;stroke-miterlimit:4;stroke-dasharray:none"
         d="m 430.97127,116.58968 c 25.90633,44.09138 22.77865,57.66246 18.69094,57.35525 -4.08773,-0.30722 -8.80007,-3.42029 -8.80007,-3.42029 -4.1959,-17.83868 -9.20466,-35.5511 -9.89087,-53.93496 z"
         id="path4948"
         sodipodi:nodetypes="cscc" />
    </g>
    <g
       id="g5338"
       transform="translate(-17.052732,-8.8596183)">
      <path
         style="opacity:0.755806;fill:#baf49f;fill-opacity:0.756863;stroke:#000000;stroke-width:2.64583;stroke-linecap:round;stroke-linejoin:round;stroke-miterlimit:4;stroke-dasharray:none"
         d="m 361.91129,116.91564 c -25.90633,44.09138 -24.90486,57.3365 -20.81715,57.02929 4.08773,-0.30722 7.82977,-5.15927 7.82977,-5.15927 7.1022,-18.29597 12.98819,-36.15075 12.98738,-51.87002 z"
         id="path5324"
         sodipodi:nodetypes="cscc" />
      <path
         style="opacity:0.755806;fill:#baf59f;fill-opacity:1;stroke:#000000;stroke-width:2.64583;stroke-linecap:round;stroke-linejoin:round;stroke-miterlimit:4;stroke-dasharray:none"
         d="m 320.86695,227.83629 c -0.57557,2.93256 17.42052,-26.42286 33.30201,-76.36267 10.19045,-32.04416 15.51027,-90.043444 27.68611,-95.778087 28.9248,-13.623159 46.05372,2.08947 48.90016,16.149278 1.09218,5.394743 -2.61171,39.175869 3.23268,68.342489 9.38728,46.84755 28.81335,95.51748 22.68323,98.64651 -9.94662,5.07711 -29.86775,-5.01386 -46.04946,-8.84809 -16.1817,-3.83423 -39.21842,11.93172 -56.27354,7.49138 -17.05512,-4.44034 -33.48119,-9.64081 -33.48119,-9.64081 z"
         id="path5326"
         sodipodi:nodetypes="csssssssc" />
      <circle
         style="opacity:0.755806;fill:#ffffff;fill-opacity:1;stroke:#000000;stroke-width:2.64583;stroke-linecap:round;stroke-linejoin:round;stroke-miterlimit:4;stroke-dasharray:none"
         id="circle5328"
         cx="377.93417"
         cy="88.871536"
         r="11.045323" />
      <circle
         style="opacity:0.755806;fill:#000000;fill-opacity:1;stroke:#000000;stroke-width:2.64583;stroke-linecap:round;stroke-linejoin:round;stroke-miterlimit:4;stroke-dasharray:none"
         id="circle5330"
         cx="374.89307"
         cy="90.290123"
         r="3.09688" />
      <circle
         style="opacity:0.755806;fill:#ffffff;fill-opacity:1;stroke:#000000;stroke-width:2.64583;stroke-linecap:round;stroke-linejoin:round;stroke-miterlimit:4;stroke-dasharray:none"
         id="circle5332"
         cx="407.80371"
         cy="89.507149"
         r="12.234359" />
      <circle
         style="opacity:0.755806;fill:#000000;fill-opacity:1;stroke:#000000;stroke-width:2.64583;stroke-linecap:round;stroke-linejoin:round;stroke-miterlimit:4;stroke-dasharray:none"
         id="circle5334"
         cx="402.88812"
         cy="90.290123"
         r="3.09688" />
      <path
         style="opacity:0.755806;fill:#baf49f;fill-opacity:0.756863;stroke:#000000;stroke-width:2.64583;stroke-linecap:round;stroke-linejoin:round;stroke-miterlimit:4;stroke-dasharray:none"
         d="m 430.97127,116.58968 c 25.90633,44.09138 22.77865,57.66246 18.69094,57.35525 -4.08773,-0.30722 -8.80007,-3.42029 -8.80007,-3.42029 -4.1959,-17.83868 -9.20466,-35.5511 -9.89087,-53.93496 z"
         id="path5336"
         sodipodi:nodetypes="cscc" />
    </g>
    <g
       id="g5354"
       transform="translate(131.11365,-8.8596183)">
      <path
         style="opacity:0.755806;fill:#baf49f;fill-opacity:0.756863;stroke:#000000;stroke-width:2.64583;stroke-linecap:round;stroke-linejoin:round;stroke-miterlimit:4;stroke-dasharray:none"
         d="m 361.91129,116.91564 c -25.90633,44.09138 -24.90486,57.3365 -20.81715,57.02929 4.08773,-0.30722 7.82977,-5.15927 7.82977,-5.15927 7.1022,-18.29597 12.98819,-36.15075 12.98738,-51.87002 z"
         id="path5340"
         sodipodi:nodetypes="cscc" />
      <path
         style="opacity:0.755806;fill:#baf59f;fill-opacity:1;stroke:#000000;stroke-width:2.64583;stroke-linecap:round;stroke-linejoin:round;stroke-miterlimit:4;stroke-dasharray:none"
         d="m 320.86695,227.83629 c -0.57557,2.93256 17.42052,-26.42286 33.30201,-76.36267 10.19045,-32.04416 15.51027,-90.043444 27.68611,-95.778087 28.9248,-13.623159 46.05372,2.08947 48.90016,16.149278 1.09218,5.394743 -2.61171,39.175869 3.23268,68.342489 9.38728,46.84755 28.81335,95.51748 22.68323,98.64651 -9.94662,5.07711 -29.86775,-5.01386 -46.04946,-8.84809 -16.1817,-3.83423 -39.21842,11.93172 -56.27354,7.49138 -17.05512,-4.44034 -33.48119,-9.64081 -33.48119,-9.64081 z"
         id="path5342"
         sodipodi:nodetypes="csssssssc" />
      <circle
         style="opacity:0.755806;fill:#ffffff;fill-opacity:1;stroke:#000000;stroke-width:2.64583;stroke-linecap:round;stroke-linejoin:round;stroke-miterlimit:4;stroke-dasharray:none"
         id="circle5344"
         cx="377.93417"
         cy="88.871536"
         r="11.045323" />
      <circle
         style="opacity:0.755806;fill:#000000;fill-opacity:1;stroke:#000000;stroke-width:2.64583;stroke-linecap:round;stroke-linejoin:round;stroke-miterlimit:4;stroke-dasharray:none"
         id="circle5346"
         cx="374.89307"
         cy="90.290123"
         r="3.09688" />
      <circle
         style="opacity:0.755806;fill:#ffffff;fill-opacity:1;stroke:#000000;stroke-width:2.64583;stroke-linecap:round;stroke-linejoin:round;stroke-miterlimit:4;stroke-dasharray:none"
         id="circle5348"
         cx="407.80371"
         cy="89.507149"
         r="12.234359" />
      <circle
         style="opacity:0.755806;fill:#000000;fill-opacity:1;stroke:#000000;stroke-width:2.64583;stroke-linecap:round;stroke-linejoin:round;stroke-miterlimit:4;stroke-dasharray:none"
         id="circle5350"
         cx="402.88812"
         cy="90.290123"
         r="3.09688" />
      <path
         style="opacity:0.755806;fill:#baf49f;fill-opacity:0.756863;stroke:#000000;stroke-width:2.64583;stroke-linecap:round;stroke-linejoin:round;stroke-miterlimit:4;stroke-dasharray:none"
         d="m 430.97127,116.58968 c 25.90633,44.09138 22.77865,57.66246 18.69094,57.35525 -4.08773,-0.30722 -8.80007,-3.42029 -8.80007,-3.42029 -4.1959,-17.83868 -9.20466,-35.5511 -9.89087,-53.93496 z"
         id="path5352"
         sodipodi:nodetypes="cscc" />
    </g>
    <g
       id="g5861"
       transform="translate(-0.41379886)">
      <path
         style="opacity:0.755806;fill:#baf49f;fill-opacity:0.756863;stroke:#000000;stroke-width:2.64583;stroke-linecap:round;stroke-linejoin:round;stroke-miterlimit:4;stroke-dasharray:none"
         d="m 197.10567,100.42391 c -25.90633,44.09138 -24.90486,57.3365 -20.81715,57.02929 4.08773,-0.30722 7.82977,-5.15927 7.82977,-5.15927 7.1022,-18.29597 12.98819,-36.15075 12.98738,-51.87002 z"
         id="path5308"
         sodipodi:nodetypes="cscc" />
      <path
         style="opacity:0.755806;fill:#baf59f;fill-opacity:1;stroke:#000000;stroke-width:2.64583;stroke-linecap:round;stroke-linejoin:round;stroke-miterlimit:4;stroke-dasharray:none"
         d="m 156.06133,211.34456 c -0.57557,2.93256 17.42052,-26.42286 33.30201,-76.36267 10.19045,-32.04416 15.51027,-90.043443 27.68611,-95.778086 28.9248,-13.623159 46.05372,2.08947 48.90016,16.149278 1.09218,5.394743 -2.61171,39.175869 3.23268,68.342488 9.38728,46.84755 28.81335,95.51748 22.68323,98.64651 -9.94662,5.07711 -29.86775,-5.01386 -46.04946,-8.84809 -16.1817,-3.83423 -39.21842,11.93172 -56.27354,7.49138 -17.05512,-4.44034 -33.48119,-9.64081 -33.48119,-9.64081 z"
         id="path5310"
         sodipodi:nodetypes="csssssssc" />
      <path
         style="opacity:0.755806;fill:#baf49f;fill-opacity:0.756863;stroke:#000000;stroke-width:2.64583;stroke-linecap:round;stroke-linejoin:round;stroke-miterlimit:4;stroke-dasharray:none"
         d="m 266.16565,100.09795 c 25.90633,44.09138 22.77865,57.66246 18.69094,57.35525 -4.08773,-0.30722 -8.80007,-3.42029 -8.80007,-3.42029 -4.1959,-17.83868 -9.20466,-35.5511 -9.89087,-53.93496 z"
         id="path5320"
         sodipodi:nodetypes="cscc" />
      <path
         style="opacity:0.755806;fill:#ffffff;fill-opacity:0.756863;stroke:#000000;stroke-width:2.64583;stroke-linecap:round;stroke-linejoin:round;stroke-miterlimit:4;stroke-dasharray:none"
         d="m 203.47918,70.569541 h 20.2237"
         id="path5692" />
      <path
         style="opacity:0.755806;fill:#ffffff;fill-opacity:0.756863;stroke:#000000;stroke-width:2.64583;stroke-linecap:round;stroke-linejoin:round;stroke-miterlimit:4;stroke-dasharray:none"
         d="m 232.6835,70.569541 h 20.2237"
         id="path5854" />
    </g>
    <rect
       style="opacity:0.755806;fill:none;fill-opacity:0.756863;stroke:#000000;stroke-width:0.264584;stroke-linecap:round;stroke-linejoin:round;stroke-miterlimit:4;stroke-dasharray:none"
       id="rect5919"
       width="144.2148"
       height="220.75795"
       x="4.8849583"
       y="21.726759"
       rx="0.68531221"
       ry="1.107805" />
    <rect
       style="opacity:0.755806;fill:none;fill-opacity:0.756863;stroke:#000000;stroke-width:0.264584;stroke-linecap:round;stroke-linejoin:round;stroke-miterlimit:4;stroke-dasharray:none"
       id="rect6133"
       width="144.2148"
       height="220.75795"
       x="151.99332"
       y="21.726759"
       rx="0.68531221"
       ry="1.107805" />
    <rect
       style="opacity:0.755806;fill:none;fill-opacity:0.756863;stroke:#000000;stroke-width:0.264584;stroke-linecap:round;stroke-linejoin:round;stroke-miterlimit:4;stroke-dasharray:none"
       id="rect6135"
       width="144.2148"
       height="220.75795"
       x="300.16"
       y="21.726759"
       rx="0.68531221"
       ry="1.107805" />
    <rect
       style="opacity:0.755806;fill:none;fill-opacity:0.756863;stroke:#000000;stroke-width:0.264584;stroke-linecap:round;stroke-linejoin:round;stroke-miterlimit:4;stroke-dasharray:none"
       id="rect6137"
       width="144.2148"
       height="220.75795"
       x="448.32639"
       y="21.726759"
       rx="0.68531221"
       ry="1.107805" />
  </g>
</svg>
